<svg width="24" height="24" viewBox="0 0 24 24" fill="none" xmlns="http://www.w3.org/2000/svg">
<path d="M22.5 -6.55671e-08C23.3284 -2.93554e-08 24 0.671573 24 1.5L24 2.25C24 3.07843 23.3284 3.75 22.5 3.75L21.75 3.75C20.9216 3.75 20.25 3.07843 20.25 2.25L20.25 1.5C20.25 0.671573 20.9216 -1.34562e-07 21.75 -9.83506e-08L22.5 -6.55671e-08Z" fill="#D8BFC0"/>
<path d="M15.75 -3.60619e-07C16.5784 -3.24407e-07 17.25 0.671573 17.25 1.5L17.25 2.25C17.25 3.07843 16.5784 3.75 15.75 3.75L15 3.75C14.1716 3.75 13.5 3.07843 13.5 2.25L13.5 1.5C13.5 0.671572 14.1716 -4.29614e-07 15 -3.93402e-07L15.75 -3.60619e-07Z" fill="#D8BFC0"/>
<path d="M9 -6.55671e-07C9.82843 -6.19459e-07 10.5 0.671572 10.5 1.5L10.5 2.25C10.5 3.07843 9.82843 3.75 9 3.75L8.25 3.75C7.42157 3.75 6.75 3.07843 6.75 2.25L6.75 1.5C6.75 0.671572 7.42157 -7.24666e-07 8.25 -6.88454e-07L9 -6.55671e-07Z" fill="#D8BFC0"/>
<path d="M2.25 -9.50723e-07C3.07843 -9.14511e-07 3.75 0.671572 3.75 1.5L3.75 2.25C3.75 3.07843 3.07843 3.75 2.25 3.75L1.5 3.75C0.671573 3.75 -1.34562e-07 3.07843 -9.83506e-08 2.25L-6.55671e-08 1.5C-2.93554e-08 0.671572 0.671573 -1.01972e-06 1.5 -9.83506e-07L2.25 -9.50723e-07Z" fill="#D8BFC0"/>
<path d="M22.5 6.75C23.3284 6.75 24 7.42157 24 8.25L24 9C24 9.82843 23.3284 10.5 22.5 10.5L21.75 10.5C20.9216 10.5 20.25 9.82843 20.25 9L20.25 8.25C20.25 7.42157 20.9216 6.75 21.75 6.75L22.5 6.75Z" fill="#D8BFC0"/>
<path d="M15.75 6.75C16.5784 6.75 17.25 7.42157 17.25 8.25L17.25 9C17.25 9.82843 16.5784 10.5 15.75 10.5L15 10.5C14.1716 10.5 13.5 9.82843 13.5 9L13.5 8.25C13.5 7.42157 14.1716 6.75 15 6.75L15.75 6.75Z" fill="#D8BFC0"/>
<path d="M22.5 13.5C23.3284 13.5 24 14.1716 24 15L24 15.75C24 16.5784 23.3284 17.25 22.5 17.25L21.75 17.25C20.9216 17.25 20.25 16.5784 20.25 15.75L20.25 15C20.25 14.1716 20.9216 13.5 21.75 13.5L22.5 13.5Z" fill="#D8BFC0"/>
<path d="M22.5 20.25C23.3284 20.25 24 20.9216 24 21.75L24 22.5C24 23.3284 23.3284 24 22.5 24L21.75 24C20.9216 24 20.25 23.3284 20.25 22.5L20.25 21.75C20.25 20.9216 20.9216 20.25 21.75 20.25L22.5 20.25Z" fill="#D8BFC0"/>
</svg>
