<svg viewBox="0 0 162 79" fill="none" xmlns="http://www.w3.org/2000/svg"><path d="M14.41 14.3h9.35V.55H0v77h14.41v-31.9h7.04V31.9h-7.04V14.3zM25.129 63.69c0 11.22 2.64 14.41 12.87 14.41h6.27c10.23 0 12.87-3.19 12.87-14.41V14.52C57.139 3.3 54.499 0 44.269 0h-6.27c-10.23 0-12.87 3.3-12.87 14.52v49.17zm17.49-1.54c0 1.65-.22 2.31-1.32 2.31h-.33c-1.1 0-1.32-.66-1.32-2.31V16.06c0-1.76.22-2.31 1.32-2.31h.33c1.1 0 1.32.55 1.32 2.31v46.09zM74.241.55h-14.52v63.14c0 11.22 2.64 14.41 12.87 14.41h5.39c10.23 0 12.87-3.19 12.87-14.41V.55h-13.64v61.6c0 1.65-.22 2.31-1.32 2.31h-.33c-1.1 0-1.32-.66-1.32-2.31V.55zM111.052 77.55h15.73v-77h-12.43v16.17c0 5.83.11 11.77.22 17.93-.66-6.05-1.32-11.66-2.09-17.93L110.502.55h-16.94v77h12.32V52.8c0-5.83 0-11.77-.11-17.82.55 5.94 1.21 11.77 1.98 17.82l3.3 24.75zM129.766 77.55h19.03c10.23 0 12.87-3.19 12.87-14.41V15.07c0-11.22-2.64-14.52-12.87-14.52h-19.03v77zm14.41-13.64V14.3h1.65c1.1 0 1.43.55 1.43 2.31V61.6c0 1.65-.33 2.31-1.43 2.31h-1.65z" fill="#000"/></svg>