<svg viewBox="0 0 162 79" fill="none" xmlns="http://www.w3.org/2000/svg">
<path d="M14.41 14.3H23.76V0.55H0V77.55H14.41V45.65H21.45V31.9H14.41V14.3Z" fill="#1C1C1C"/>
<path d="M25.129 63.69C25.129 74.91 27.769 78.1 37.999 78.1H44.269C54.499 78.1 57.139 74.91 57.139 63.69V14.52C57.139 3.3 54.499 0 44.269 0H37.999C27.769 0 25.129 3.3 25.129 14.52V63.69ZM42.619 62.15C42.619 63.8 42.399 64.46 41.299 64.46H40.969C39.869 64.46 39.649 63.8 39.649 62.15V16.06C39.649 14.3 39.869 13.75 40.969 13.75H41.299C42.399 13.75 42.619 14.3 42.619 16.06V62.15Z" fill="#1C1C1C"/>
<path d="M74.2414 0.55H59.7214V63.69C59.7214 74.91 62.3614 78.1 72.5914 78.1H77.9814C88.2114 78.1 90.8514 74.91 90.8514 63.69V0.55H77.2114V62.15C77.2114 63.8 76.9914 64.46 75.8914 64.46H75.5614C74.4614 64.46 74.2414 63.8 74.2414 62.15V0.55Z" fill="#1C1C1C"/>
<path d="M111.052 77.55H126.782V0.55H114.352V16.72C114.352 22.55 114.462 28.49 114.572 34.65C113.912 28.6 113.252 22.99 112.482 16.72L110.502 0.55H93.5619V77.55H105.882V52.8C105.882 46.97 105.882 41.03 105.772 34.98C106.322 40.92 106.982 46.75 107.752 52.8L111.052 77.55Z" fill="#1C1C1C"/>
<path d="M129.766 77.55H148.796C159.026 77.55 161.666 74.36 161.666 63.14V15.07C161.666 3.85 159.026 0.55 148.796 0.55H129.766V77.55ZM144.176 63.91V14.3H145.826C146.926 14.3 147.256 14.85 147.256 16.61V61.6C147.256 63.25 146.926 63.91 145.826 63.91H144.176Z" fill="#1C1C1C"/>
</svg>
