<svg xmlns="http://www.w3.org/2000/svg" xmlns:xlink="http://www.w3.org/1999/xlink" version="1.1" id="Capa_1" x="0px" y="0px" viewBox="0 0 512 512" style="enable-background:new 0 0 512 512;" xml:space="preserve" width="25px" height="25px"><g transform="matrix(1 0 0 -1 0 512)"><g><g><path d="M507.604,131.729L380.271,4.396c-5.861-5.861-15.358-5.861-21.22,0l-67.661,67.661c-5.861,5.861-5.861,15.358,0,21.22 L418.723,220.61c2.93,2.931,6.77,4.397,10.609,4.397s7.679-1.466,10.61-4.397l67.661-67.661 C513.466,147.087,513.466,137.59,507.604,131.729z" data-original="var(--color)" class="active-path" fill="var(--color)"/></g></g><g><g><path d="M397.504,241.829L270.171,114.497c-0.187-0.187-0.313-0.416-0.496-0.604l-143.542,71.767 c-3.282,1.642-5.861,4.44-7.225,7.855L0,490.78l182.374-182.374c-2.808-5.869-4.512-12.357-4.512-19.287 c0-24.824,20.194-45.019,45.019-45.019s45.019,20.194,45.019,45.019c0,24.824-20.194,45.019-45.019,45.019 c-6.93,0-13.418-1.704-19.287-4.512L21.22,512l297.267-118.906c3.414-1.363,6.214-3.942,7.855-7.225l71.767-143.542 C397.92,242.144,397.691,242.017,397.504,241.829z" data-original="var(--color)" class="active-path" fill="var(--color)"/></g></g><g><g></g></g></g> </svg>