<svg viewBox="0 0 97 79" fill="none" xmlns="http://www.w3.org/2000/svg">
<path d="M18.2048 77.9992H33.9349V0.999218H21.5049V17.1692C21.5049 22.9992 21.6149 28.9392 21.7249 35.0992C21.0649 29.0492 20.4049 23.4392 19.6349 17.1692L17.6548 0.999218H0.714844V77.9992H13.0349V53.2492C13.0349 47.4192 13.0349 41.4792 12.9249 35.4292C13.4749 41.3692 14.1348 47.1992 14.9048 53.2492L18.2048 77.9992Z" fill="#000"/>
<path d="M36.5886 64.1392C36.5886 75.3592 39.2286 78.5492 49.4586 78.5492H55.7286C65.9586 78.5492 68.5986 75.3592 68.5986 64.1392V14.9692C68.5986 3.74922 65.9586 0.449219 55.7286 0.449219H49.4586C39.2286 0.449219 36.5886 3.74922 36.5886 14.9692V64.1392ZM54.0786 62.5992C54.0786 64.2492 53.8586 64.9092 52.7586 64.9092H52.4286C51.3286 64.9092 51.1086 64.2492 51.1086 62.5992V16.5092C51.1086 14.7492 51.3286 14.1992 52.4286 14.1992H52.7586C53.8586 14.1992 54.0786 14.7492 54.0786 16.5092V62.5992Z" fill="#000"/>
<path d="M90.541 77.9992V14.6392H96.701V0.999218H69.861V14.6392H76.021V77.9992H90.541Z" fill="#000"/>
</svg>
