<svg viewBox="0 0 97 79" fill="none" xmlns="http://www.w3.org/2000/svg"><path d="M18.205 78h15.73V1h-12.43v16.17c0 5.83.11 11.77.22 17.93-.66-6.05-1.32-11.66-2.09-17.93L17.655 1H.715v77h12.32V53.25c0-5.83 0-11.77-.11-17.82.55 5.94 1.21 11.77 1.98 17.82l3.3 24.75zM36.589 64.14c0 11.22 2.64 14.41 12.87 14.41h6.27c10.23 0 12.87-3.19 12.87-14.41V14.97c0-11.22-2.64-14.52-12.87-14.52h-6.27c-10.23 0-12.87 3.3-12.87 14.52v49.17zm17.49-1.54c0 1.65-.22 2.31-1.32 2.31h-.33c-1.1 0-1.32-.66-1.32-2.31V16.51c0-1.76.22-2.31 1.32-2.31h.33c1.1 0 1.32.55 1.32 2.31V62.6zM90.541 78V14.64h6.16V1h-26.84v13.64h6.16V78h14.52z" fill="#000"/></svg>