<svg viewBox="0 0 125 79" fill="none" xmlns="http://www.w3.org/2000/svg">
<path d="M0 77.55H14.41V50.82H19.03C29.26 50.82 31.9 47.52 31.9 36.41V15.07C31.9 3.85 29.26 0.55 19.03 0.55H0V77.55ZM14.41 37.18V14.3H16.06C17.16 14.3 17.49 14.85 17.49 16.61V34.87C17.49 36.52 17.16 37.18 16.06 37.18H14.41Z" fill="#000"/>
<path d="M50.3688 77.55H64.8888L57.9588 0.55H37.9388L31.0088 77.55H43.9888L44.5388 68.2H49.8188L50.3688 77.55ZM47.1788 15.62C47.6188 28.93 48.2788 41.25 49.0488 55.44H45.1988C46.0788 41.25 46.7388 28.93 47.1788 15.62Z" fill="#000"/>
<path d="M81.7919 46.53H83.3319V62.15C83.3319 63.8 83.1119 64.46 82.0119 64.46H81.6819C80.5819 64.46 80.3619 63.8 80.3619 62.15V16.06C80.3619 14.3 80.5819 13.75 81.6819 13.75H82.0119C83.1119 13.75 83.3319 14.3 83.3319 16.06V29.26H96.9719V14.52C96.9719 3.3 94.3319 0 84.1019 0H78.7119C68.4819 0 65.8419 3.3 65.8419 14.52V63.69C65.8419 74.91 68.4819 78.1 78.7119 78.1H84.1019C94.3319 78.1 96.9719 74.91 96.9719 63.69V32.89H81.7919V46.53Z" fill="#000"/>
<path d="M114.098 14.3H124.107V0.55H99.6875V77.55H124.107V63.91H114.098V44.55H121.688V30.8H114.098V14.3Z" fill="#000"/>
</svg>
