<svg viewBox="0 0 125 79" fill="none" xmlns="http://www.w3.org/2000/svg"><path d="M0 77.55h14.41V50.82h4.62c10.23 0 12.87-3.3 12.87-14.41V15.07C31.9 3.85 29.26.55 19.03.55H0v77zm14.41-40.37V14.3h1.65c1.1 0 1.43.55 1.43 2.31v18.26c0 1.65-.33 2.31-1.43 2.31h-1.65zM50.369 77.55h14.52l-6.93-77h-20.02l-6.93 77h12.98l.55-9.35h5.28l.55 9.35zm-3.19-61.93c.44 13.31 1.1 25.63 1.87 39.82h-3.85c.88-14.19 1.54-26.51 1.98-39.82zM81.792 46.53h1.54v15.62c0 1.65-.22 2.31-1.32 2.31h-.33c-1.1 0-1.32-.66-1.32-2.31V16.06c0-1.76.22-2.31 1.32-2.31h.33c1.1 0 1.32.55 1.32 2.31v13.2h13.64V14.52C96.972 3.3 94.332 0 84.102 0h-5.39c-10.23 0-12.87 3.3-12.87 14.52v49.17c0 11.22 2.64 14.41 12.87 14.41h5.39c10.23 0 12.87-3.19 12.87-14.41v-30.8h-15.18v13.64zM114.098 14.3h10.009V.55h-24.42v77h24.42V63.91h-10.009V44.55h7.59V30.8h-7.59V14.3z" fill="#000"/></svg>