<svg viewBox="0 0 406 80" fill="none" xmlns="http://www.w3.org/2000/svg">
<path d="M258.41 14.3H267.76V0.55H244V77.55H258.41V45.65H265.45V31.9H258.41V14.3Z" fill="#000"/>
<path d="M269.129 63.69C269.129 74.91 271.769 78.1 281.999 78.1H288.269C298.499 78.1 301.139 74.91 301.139 63.69V14.52C301.139 3.3 298.499 0 288.269 0H281.999C271.769 0 269.129 3.3 269.129 14.52V63.69ZM286.619 62.15C286.619 63.8 286.399 64.46 285.299 64.46H284.969C283.869 64.46 283.649 63.8 283.649 62.15V16.06C283.649 14.3 283.869 13.75 284.969 13.75H285.299C286.399 13.75 286.619 14.3 286.619 16.06V62.15Z" fill="#000"/>
<path d="M318.241 0.55H303.721V63.69C303.721 74.91 306.361 78.1 316.591 78.1H321.981C332.211 78.1 334.851 74.91 334.851 63.69V0.55H321.211V62.15C321.211 63.8 320.991 64.46 319.891 64.46H319.561C318.461 64.46 318.241 63.8 318.241 62.15V0.55Z" fill="#000"/>
<path d="M355.052 77.55H370.782V0.55H358.352V16.72C358.352 22.55 358.462 28.49 358.572 34.65C357.912 28.6 357.252 22.99 356.482 16.72L354.502 0.55H337.562V77.55H349.882V52.8C349.882 46.97 349.882 41.03 349.772 34.98C350.322 40.92 350.982 46.75 351.752 52.8L355.052 77.55Z" fill="#000"/>
<path d="M373.766 77.55H392.796C403.026 77.55 405.666 74.36 405.666 63.14V15.07C405.666 3.85 403.026 0.55 392.796 0.55H373.766V77.55ZM388.176 63.91V14.3H389.826C390.926 14.3 391.256 14.85 391.256 16.61V61.6C391.256 63.25 390.926 63.91 389.826 63.91H388.176Z" fill="#000"/>
<path d="M156.205 77.9992H171.935V0.999218H159.505V17.1692C159.505 22.9992 159.615 28.9392 159.725 35.0992C159.065 29.0492 158.405 23.4392 157.635 17.1692L155.655 0.999218H138.715V77.9992H151.035V53.2492C151.035 47.4192 151.035 41.4792 150.925 35.4292C151.475 41.3692 152.135 47.1992 152.905 53.2492L156.205 77.9992Z" fill="#000"/>
<path d="M174.589 64.1392C174.589 75.3592 177.229 78.5492 187.459 78.5492H193.729C203.959 78.5492 206.599 75.3592 206.599 64.1392V14.9692C206.599 3.74922 203.959 0.449219 193.729 0.449219H187.459C177.229 0.449219 174.589 3.74922 174.589 14.9692V64.1392ZM192.079 62.5992C192.079 64.2492 191.859 64.9092 190.759 64.9092H190.429C189.329 64.9092 189.109 64.2492 189.109 62.5992V16.5092C189.109 14.7492 189.329 14.1992 190.429 14.1992H190.759C191.859 14.1992 192.079 14.7492 192.079 16.5092V62.5992Z" fill="#000"/>
<path d="M228.541 77.9992V14.6392H234.701V0.999218H207.861V14.6392H214.021V77.9992H228.541Z" fill="#000"/>
<path d="M0 78.55H14.41V51.82H19.03C29.26 51.82 31.9 48.52 31.9 37.41V16.07C31.9 4.85 29.26 1.55 19.03 1.55H0V78.55ZM14.41 38.18V15.3H16.06C17.16 15.3 17.49 15.85 17.49 17.61V35.87C17.49 37.52 17.16 38.18 16.06 38.18H14.41Z" fill="#000"/>
<path d="M50.3688 78.55H64.8888L57.9588 1.55H37.9388L31.0088 78.55H43.9888L44.5388 69.2H49.8188L50.3688 78.55ZM47.1788 16.62C47.6188 29.93 48.2788 42.25 49.0488 56.44H45.1988C46.0788 42.25 46.7388 29.93 47.1788 16.62Z" fill="#000"/>
<path d="M81.7919 47.53H83.3319V63.15C83.3319 64.8 83.1119 65.46 82.0119 65.46H81.6819C80.5819 65.46 80.3619 64.8 80.3619 63.15V17.06C80.3619 15.3 80.5819 14.75 81.6819 14.75H82.0119C83.1119 14.75 83.3319 15.3 83.3319 17.06V30.26H96.9719V15.52C96.9719 4.3 94.3319 1 84.1019 1H78.7119C68.4819 1 65.8419 4.3 65.8419 15.52V64.69C65.8419 75.91 68.4819 79.1 78.7119 79.1H84.1019C94.3319 79.1 96.9719 75.91 96.9719 64.69V33.89H81.7919V47.53Z" fill="#000"/>
<path d="M114.098 15.3H124.107V1.55H99.6875V78.55H124.107V64.91H114.098V45.55H121.688V31.8H114.098V15.3Z" fill="#000"/>
</svg>
