<?xml version="1.0" encoding="UTF-8"?>
<svg id="Layer_1" data-name="Layer 1" xmlns="http://www.w3.org/2000/svg" version="1.1" viewBox="0 0 301.9 308.5">
  <path d="M296.3,118c-5.8-31.3-22.5-56.7-45.1-78.3C230.8,20.3,206.6,7.4,178.5,2.6,148.1-2.6,118.7,0,90.5,12.3c-20.3,8.9-36.9,22.5-51.8,38.9-15.8,17.4-26.8,37.3-32.8,59.5-7.1,26.1-7.7,52.6-1.8,79.4,6.7,30.7,22,56.2,44.2,77.6,29.1,27.9,64.1,41.5,104.7,40.8,39.3-.6,72.9-14.8,100.7-42.1,31.1-30.5,47-67.8,48-111.7-1.8-12.2-3.2-24.5-5.4-36.7ZM150.3,253.4c-36.9,0-66.8-29.9-66.8-66.8s29.9-66.8,66.8-66.8,66.8,29.9,66.8,66.8-29.9,66.8-66.8,66.8Z" fill="#000" stroke-width="0"/>
  <path d="M295.1,40.7c-4.5,4.5-10.1,6.8-16.7,6.8s-12.2-2.3-16.7-6.8c-4.5-4.5-6.8-10.2-6.8-17s2.3-12.4,6.8-17c4.5-4.5,10.1-6.8,16.7-6.8s12.2,2.3,16.7,6.8c4.5,4.5,6.8,10.2,6.8,17s-2.3,12.4-6.8,17ZM278.5,43.8c5.6,0,10.1-1.9,13.7-5.7,3.6-3.8,5.4-8.6,5.4-14.4s-1.8-10.5-5.4-14.3c-3.6-3.8-8.2-5.7-13.7-5.7s-10,1.9-13.7,5.7c-3.6,3.8-5.4,8.6-5.4,14.3s1.8,10.5,5.4,14.4c3.6,3.8,8.2,5.7,13.7,5.7ZM268.5,36.1V11h12.2c2.5,0,4.7.7,6.4,2,1.7,1.3,2.6,3.1,2.6,5.4s-1.4,5-4.3,6v.2c2,.6,3.2,2.1,3.7,4.5.1.8.2,1.7.3,2.9,0,1.1.2,2,.3,2.6s.3.9.6,1.1v.5h-6.7c-.3-.1-.6-2.1-1.1-5.8-.2-2.2-1.5-3.3-3.9-3.3h-3.3v9.1h-6.8ZM275.2,16.4v5.7h4.2c2.4,0,3.5-.9,3.5-2.8s-1.2-2.8-3.5-2.8h-4.2Z" fill="#000" stroke-width="0"/>
</svg>