<svg width="24" height="24" viewBox="0 0 24 24" fill="none" xmlns="http://www.w3.org/2000/svg">
<path d="M12 0C15.1826 0 18.2348 1.26428 20.4853 3.51472C22.7357 5.76516 24 8.8174 24 12C24 15.1826 22.7357 18.2348 20.4853 20.4853C18.2348 22.7357 15.1826 24 12 24C8.8174 24 5.76516 22.7357 3.51472 20.4853C1.26428 18.2348 0 15.1826 0 12C0 8.8174 1.26428 5.76516 3.51472 3.51472C5.76516 1.26428 8.8174 0 12 0ZM12 22.2857C14.7279 22.2857 17.3442 21.202 19.2731 19.2731C21.202 17.3442 22.2857 14.7279 22.2857 12C22.2857 9.27206 21.202 6.65585 19.2731 4.7269C17.3442 2.79796 14.7279 1.71429 12 1.71429C9.27206 1.71429 6.65585 2.79796 4.7269 4.7269C2.79796 6.65585 1.71429 9.27206 1.71429 12C1.71429 14.7279 2.79796 17.3442 4.7269 19.2731C6.65585 21.202 9.27206 22.2857 12 22.2857Z" fill="#6C98F3"/>
<path d="M12.9092 18.4803C13.1503 18.2392 13.2858 17.9121 13.2858 17.5711C13.2858 17.2302 13.1503 16.9031 12.9092 16.662C12.6681 16.4209 12.3411 16.2854 12.0001 16.2854C11.6591 16.2854 11.3321 16.4209 11.0909 16.662C10.8498 16.9031 10.7144 17.2302 10.7144 17.5711C10.7144 17.9121 10.8498 18.2392 11.0909 18.4803C11.3321 18.7214 11.6591 18.8569 12.0001 18.8569C12.3411 18.8569 12.6681 18.7214 12.9092 18.4803Z" fill="#2551AC"/>
<path d="M12.6062 5.39363C12.4454 5.23288 12.2274 5.14258 12.0001 5.14258C11.7727 5.14258 11.5547 5.23288 11.394 5.39363C11.2332 5.55438 11.1429 5.77239 11.1429 5.99972V13.714C11.1429 13.9413 11.2332 14.1594 11.394 14.3201C11.5547 14.4808 11.7727 14.5711 12.0001 14.5711C12.2274 14.5711 12.4454 14.4808 12.6062 14.3201C12.7669 14.1594 12.8572 13.9413 12.8572 13.714V5.99972C12.8572 5.77239 12.7669 5.55438 12.6062 5.39363Z" fill="#2551AC"/>
</svg>
